<svg xmlns="http://www.w3.org/2000/svg" viewBox="0 0 100 100">
  <defs>
    <linearGradient id="gGrad" x1="0%" y1="0%" x2="100%" y2="100%">
      <stop offset="0%" stop-color="#4f46e5" />
      <stop offset="100%" stop-color="#3b82f6" />
    </linearGradient>
  </defs>
  <rect width="100" height="100" rx="22" fill="#0f172a" />
  
  <path d="M 50 25 C 36 25 25 36 25 50 C 25 64 36 75 50 75 C 60 75 68 69 72 61 L 52 61 L 52 48 L 74 48 C 74 49 75 50 75 52 C 75 67 64 78 50 78 C 34 78 21 65 21 50 C 21 35 34 22 50 22 C 58 22 65 25 70 30 L 61 39 C 58 37 54 35 50 35 Z" fill="#ffffff" />
  <path d="M 50 50 L 74 48 C 74 49 75 50 75 52 C 75 67 64 78 50 78 C 45 78 40 76 36 73 L 50 50 Z" fill="url(#gGrad)" />
  
  <path d="M 75 15 Q 75 30 90 30 Q 75 30 75 45 Q 75 30 60 30 Q 75 30 75 15 Z" fill="#38bdf8" />
</svg>
